<?xml version="1.0" encoding="UTF-8"?>
<svg version="1.1" xmlns="http://www.w3.org/2000/svg" width="227" height="222">
<path d="M0 0 C74.91 0 149.82 0 227 0 C227 73.26 227 146.52 227 222 C152.09 222 77.18 222 0 222 C0 148.74 0 75.48 0 0 Z " fill="#FDFDFD" transform="translate(0,0)"/>
<path d="M0 0 C0.66 0.33 1.32 0.66 2 1 C1.505 1.53625 1.01 2.0725 0.5 2.625 C-1.37489544 5.59358445 -1.23501425 7.55312427 -1 11 C-0.071875 10.835 0.85625 10.67 1.8125 10.5 C5.86788886 9.86386057 9.02195323 10.13988178 13 11 C13 8.03 13 5.06 13 2 C13.66 2 14.32 2 15 2 C16.67689685 15.47506394 16.67689685 15.47506394 14 22 C13.41597867 24.58582128 13.41597867 24.58582128 14 27 C18.57806272 30.25795591 23.74672436 31.70001881 29.0390625 33.42578125 C32.81917772 35.43552589 33.5770259 37.0032573 35 41 C36.22500744 47.0962135 36.28712628 53.30249313 36.4296875 59.50390625 C36.62556669 64.34375464 37.42808853 66.83955497 40 71 C40.91409104 74.33639535 41.51464343 77.72165177 42.125 81.125 C42.45940536 82.91955702 42.79528009 84.71384101 43.1328125 86.5078125 C43.34768311 87.69334717 43.34768311 87.69334717 43.56689453 88.90283203 C43.99373283 91.17756541 43.99373283 91.17756541 45 94 C45.66 94.33 46.32 94.66 47 95 C47 95.66 47 96.32 47 97 C47.61875 97.2475 48.2375 97.495 48.875 97.75 C51.41530728 99.2442984 52.02864183 100.24781851 53 103 C53 104.32 53 105.64 53 107 C52.0925 106.649375 51.185 106.29875 50.25 105.9375 C46.91886262 104.97659499 46.13374138 105.02070582 43 106 C41.00015623 106.02499805 38.99981542 106.02717141 37 106 C36.75765625 104.94941406 36.5153125 103.89882812 36.265625 102.81640625 C34.28431626 93.92728503 34.28431626 93.92728503 30.9375 85.5 C28.2736048 80.11977071 27.59050409 74.24648285 26.61328125 68.37890625 C26.1894088 65.14524011 26.1894088 65.14524011 25 63 C21.00136854 72.24683524 23.20229354 82.23052851 25.0625 91.75 C26.77077523 101.2256119 27.40676551 109.42059678 26 119 C25.83757812 120.22976562 25.67515625 121.45953125 25.5078125 122.7265625 C24.27146657 131.45706687 24.27146657 131.45706687 23 134 C22.96248285 135.70016726 22.98717239 137.40189694 23.04296875 139.1015625 C23.30348181 150.46644468 23.34010692 160.70903901 19.875 171.59765625 C18.63123593 176.43389958 18.08377235 180.84359278 20.09375 185.57421875 C20.78984375 186.62029297 20.78984375 186.62029297 21.5 187.6875 C23.66067565 190.97052661 24.49549838 193.03601299 24 197 C21.6875 199.8125 21.6875 199.8125 19 202 C18.01 202 17.02 202 16 202 C12.10251593 197.41472463 11.39974214 193.79626107 11 188 C10.34 188 9.68 188 9 188 C8.96261719 188.74765625 8.92523438 189.4953125 8.88671875 190.265625 C8.82097656 191.25046875 8.75523438 192.2353125 8.6875 193.25 C8.60048828 194.71179688 8.60048828 194.71179688 8.51171875 196.203125 C7.95363476 199.25341611 7.03630224 200.70711276 5 203 C1.15837998 201.75406918 -1.1145859 200.66608297 -3 197 C-2.77830343 194.1918435 -2.01477002 192.03562182 -0.9375 189.4375 C1.36055579 181.01129544 0.30473286 174.19521949 -2.9375 166.1875 C-6.15901536 158.17392278 -6.69182814 150.70015788 -6.68530273 142.10620117 C-6.71673466 135.79610363 -7.78000649 130.8812197 -10 125 C-13.23727461 112.97314838 -11.19524419 98.84841139 -9.06738281 86.80053711 C-7.9296212 80.3043507 -6.8151835 73.76457182 -9.5 67.5 C-9.995 66.345 -10.49 65.19 -11 64 C-11.09796875 64.93199219 -11.1959375 65.86398438 -11.296875 66.82421875 C-12.18768627 74.41915275 -13.55857768 81.24335916 -15.98828125 88.5234375 C-17.39149831 93.34530307 -18.19619852 98.2188716 -18.96069336 103.17724609 C-19.57401576 107.04870127 -20.49282913 110.39309535 -22 114 C-22 114.99 -22 115.98 -22 117 C-25.13164763 118.85579119 -27.37222163 119.28640356 -31 119 C-31.66 118.67 -32.32 118.34 -33 118 C-33.125 111.375 -33.125 111.375 -32 108 C-33.485 108.495 -33.485 108.495 -35 109 C-35.33 108.01 -35.66 107.02 -36 106 C-34.26829198 102.9855453 -32.69565716 100.54962226 -29.953125 98.3828125 C-27.05571576 94.84797323 -26.95116304 91.26309724 -26.4375 86.8125 C-25.83524119 81.9128332 -25.22176629 77.34515938 -23.46875 72.7109375 C-21.02499594 65.85202915 -21.21912831 58.53607708 -20.91601562 51.33007812 C-20.28958132 40.40227968 -20.28958132 40.40227968 -16 36 C-13.58846072 34.49069944 -11.43258746 33.28514276 -8.875 32.125 C-8.24207031 31.81820312 -7.60914062 31.51140625 -6.95703125 31.1953125 C-2.3409947 29 -2.3409947 29 0 29 C-0.28778244 27.47842689 -0.58046001 25.95777947 -0.875 24.4375 C-1.05289063 23.51839844 -1.23078125 22.59929688 -1.4140625 21.65234375 C-1.98135159 18.8215047 -1.98135159 18.8215047 -3.25 15.5 C-4.27109255 10.73490143 -3.51652539 6.60855214 -2 2 C-1.34 1.34 -0.68 0.68 0 0 Z " fill="#F5F5F5" transform="translate(41,10)"/>
<path d="M0 0 C0.53625 0.33 1.0725 0.66 1.625 1 C1.625 2.32 1.625 3.64 1.625 5 C2.285 5 2.945 5 3.625 5 C3.84711116 6.93596892 4.05222992 8.87389328 4.25 10.8125 C4.36601562 11.89144531 4.48203125 12.97039063 4.6015625 14.08203125 C4.625 17 4.625 17 2.625 20 C2.38392674 22.28648848 2.38392674 22.28648848 2.5 24.6875 C2.51804688 25.49574219 2.53609375 26.30398437 2.5546875 27.13671875 C2.57789063 27.75160156 2.60109375 28.36648437 2.625 29 C3.58921875 29.45890625 4.5534375 29.9178125 5.546875 30.390625 C6.82312733 31.00998275 8.09915737 31.62979872 9.375 32.25 C10.00921875 32.55035156 10.6434375 32.85070313 11.296875 33.16015625 C15.73679182 35.33386553 19.36817253 37.48634507 21.625 42 C21.81310172 44.08237067 21.94706067 46.16973532 22.0546875 48.2578125 C22.12816406 49.52367187 22.20164062 50.78953125 22.27734375 52.09375 C22.42698597 54.75751103 22.56519745 57.42127877 22.69921875 60.0859375 C23.11693711 67.08095008 23.90297646 72.56991377 26.625 79 C27.31531746 81.89455879 27.79061414 84.81097455 28.25 87.75 C29.1479067 93.94037857 29.1479067 93.94037857 30.625 100 C31.94907669 100.68486725 33.28409241 101.34870203 34.625 102 C38.625 106.33333333 38.625 106.33333333 38.625 110 C37.635 110 36.645 110 35.625 110 C35.625 113.3 35.625 116.6 35.625 120 C34.305 120.33 32.985 120.66 31.625 121 C31.295 119.35 30.965 117.7 30.625 116 C30.13 117.98 30.13 117.98 29.625 120 C27.975 119.67 26.325 119.34 24.625 119 C22.89701539 113.79300638 21.52930562 108.75874474 20.8125 103.3125 C19.97083799 97.70141996 18.03517045 92.83866211 15.81079102 87.67089844 C13.28323737 81.60476969 12.26408635 75.53410701 11.625 69 C9.17108431 72.68087353 9.39697241 75.44355588 9.5 79.6875 C9.50902344 80.38939453 9.51804688 81.09128906 9.52734375 81.81445312 C9.55086296 83.54311525 9.58673287 85.27160145 9.625 87 C9.01914063 86.50371094 8.41328125 86.00742188 7.7890625 85.49609375 C5.70337897 83.74069964 5.70337897 83.74069964 3 84.0625 C0.53895378 84.78531425 0.53895378 84.78531425 -0.625 86.75 C-1.4254782 89.15143459 -1.95904921 91.50429527 -2.375 94 C-3.365 94 -4.355 94 -5.375 94 C-4.715 92.35 -4.055 90.7 -3.375 89 C-4.2825 89.0825 -5.19 89.165 -6.125 89.25 C-9.375 89 -9.375 89 -11.3125 87 C-13.34691738 84.59579414 -13.34691738 84.59579414 -17.125 84.75 C-18.1975 84.8325 -19.27 84.915 -20.375 85 C-25.06996518 102.52228075 -22.39222246 121.43545498 -19.375 139 C-16.405 139.99 -16.405 139.99 -13.375 141 C-13.87 138.525 -13.87 138.525 -14.375 136 C-13.715 136 -13.055 136 -12.375 136 C-12.045 138.64 -11.715 141.28 -11.375 144 C-10.715 144 -10.055 144 -9.375 144 C-9.38023682 143.3294458 -9.38547363 142.6588916 -9.39086914 141.96801758 C-9.41171605 138.916188 -9.42468469 135.86437344 -9.4375 132.8125 C-9.44587891 131.75740234 -9.45425781 130.70230469 -9.46289062 129.61523438 C-9.46611328 128.59365234 -9.46933594 127.57207031 -9.47265625 126.51953125 C-9.47789307 125.58214111 -9.48312988 124.64475098 -9.48852539 123.67895508 C-9.37582657 121.01950523 -8.96876649 118.59079427 -8.375 116 C-8.045 116 -7.715 116 -7.375 116 C-7.34578221 120.02081788 -7.32812812 124.04160814 -7.3125 128.0625 C-7.30412109 129.19623047 -7.29574219 130.32996094 -7.28710938 131.49804688 C-7.27070169 137.12588328 -7.45787385 142.45138682 -8.375 148 C-8.05904492 149.67004829 -7.72320041 151.33637583 -7.375 153 C-7.28236234 156.33495585 -7.31671089 159.66456775 -7.375 163 C-7.705 163 -8.035 163 -8.375 163 C-8.56835938 161.80761719 -8.76171875 160.61523438 -8.9609375 159.38671875 C-9.22357916 157.82024888 -9.48662088 156.25384605 -9.75 154.6875 C-9.87632812 153.90181641 -10.00265625 153.11613281 -10.1328125 152.30664062 C-10.26171875 151.54931641 -10.390625 150.79199219 -10.5234375 150.01171875 C-10.69625244 148.96697388 -10.69625244 148.96697388 -10.87255859 147.90112305 C-11.34675121 145.69171241 -11.34675121 145.69171241 -13.375 143 C-16.44056598 142.26656572 -16.44056598 142.26656572 -19.375 142 C-20.82087689 151.70598543 -20.20669501 159.08107267 -17.28564453 168.40527344 C-15.25466948 174.97565587 -14.5090867 181.10062991 -14.375 188 C-13.715 184.7 -13.055 181.4 -12.375 178 C-11.385 178.99 -11.385 178.99 -10.375 180 C-10.375 175.38 -10.375 170.76 -10.375 166 C-9.715 165.67 -9.055 165.34 -8.375 165 C-8.28412109 166.37285156 -8.28412109 166.37285156 -8.19140625 167.7734375 C-8.10761719 168.96195313 -8.02382812 170.15046875 -7.9375 171.375 C-7.85628906 172.55835938 -7.77507812 173.74171875 -7.69140625 174.9609375 C-7.56415064 177.91518901 -7.56415064 177.91518901 -6.375 180 C-6.39071045 178.79670044 -6.39071045 178.79670044 -6.40673828 177.5690918 C-6.44825767 173.94192628 -6.47431343 170.31481072 -6.5 166.6875 C-6.51675781 165.42486328 -6.53351563 164.16222656 -6.55078125 162.86132812 C-6.56044922 161.04858398 -6.56044922 161.04858398 -6.5703125 159.19921875 C-6.58602295 157.52605591 -6.58602295 157.52605591 -6.60205078 155.8190918 C-6.375 153 -6.375 153 -4.375 150 C-4.39820313 150.6084375 -4.42140625 151.216875 -4.4453125 151.84375 C-4.5835498 158.558133 -3.98756053 164.97719943 -2.99853516 171.60351562 C-2.53597974 174.84856877 -2.32173813 176.84021439 -3.375 180 C-2.715 180 -2.055 180 -1.375 180 C-1.375 180.66 -1.375 181.32 -1.375 182 C-2.695 182 -4.015 182 -5.375 182 C-4.88 184.475 -4.88 184.475 -4.375 187 C-3.055 187 -1.735 187 -0.375 187 C-0.045 186.01 0.285 185.02 0.625 184 C2.1875 182.3125 2.1875 182.3125 3.625 181 C3.625 183.66666667 3.625 186.33333333 3.625 189 C4.12 190.36125 4.12 190.36125 4.625 191.75 C6.24038462 197 6.24038462 197 5.625 200 C2.8125 202.8125 2.8125 202.8125 -0.375 205 C-1.365 205 -2.355 205 -3.375 205 C-5.80311925 199.17251381 -5.99227907 193.2242509 -6.375 187 C-6.35179687 187.79664063 -6.32859375 188.59328125 -6.3046875 189.4140625 C-6.12543937 199.93848858 -6.12543937 199.93848858 -8.375 205 C-12.19062075 204.47005267 -14.57170149 203.68511623 -17.375 201 C-17.74975586 198.74194336 -17.74975586 198.74194336 -17.58984375 196.08984375 C-17.55117187 195.10959229 -17.5125 194.12934082 -17.47265625 193.11938477 C-17.41980469 192.06936279 -17.36695313 191.01934082 -17.3125 189.9375 C-17.09016952 182.13682658 -17.32600454 175.45709347 -19.875 168.0625 C-22.68090871 159.75544556 -22.63943776 152.10872193 -22.41796875 143.39892578 C-22.27607353 136.56187136 -22.70040184 130.17173137 -23.875 123.4375 C-25.9997737 110.99081229 -26.0364758 99.33966985 -23.44287109 86.93286133 C-22.31572207 81.46892953 -21.24792005 75.81769989 -23.375 70.5 C-23.705 70.005 -24.035 69.51 -24.375 69 C-24.61283203 70.39798828 -24.61283203 70.39798828 -24.85546875 71.82421875 C-26.02913629 78.23724195 -27.26647125 84.15246889 -29.8125 90.1875 C-33.13268369 98.21211314 -34.48124969 106.62843574 -35.97363281 115.14331055 C-36.375 117 -36.375 117 -37.375 119 C-42.59722222 121 -42.59722222 121 -45.375 121 C-45.705 120.67 -46.035 120.34 -46.375 120 C-47.035 120 -47.695 120 -48.375 120 C-48.189375 119.2575 -48.00375 118.515 -47.8125 117.75 C-47.38296892 115.05009037 -47.52377026 113.55368923 -48.375 111 C-49.365 111 -50.355 111 -51.375 111 C-50.95516074 106.10187531 -48.84621495 104.305919 -45.375 101 C-42.09502894 96.61854612 -41.57304155 92.34090058 -40.875 87.0625 C-40.66596339 85.489564 -40.4473827 83.91786358 -40.21875 82.34765625 C-40.12787109 81.65679932 -40.03699219 80.96594238 -39.94335938 80.25415039 C-39.375 78 -39.375 78 -37.87280273 75.14819336 C-36.22556203 71.68590015 -35.8474898 69.0904814 -35.56640625 65.28125 C-35.45876953 64.01925781 -35.35113281 62.75726563 -35.24023438 61.45703125 C-35.03843397 58.81930467 -34.84051602 56.18127818 -34.64648438 53.54296875 C-34.4830957 51.64998047 -34.4830957 51.64998047 -34.31640625 49.71875 C-34.23076416 48.57341797 -34.14512207 47.42808594 -34.05688477 46.24804688 C-33.11401612 41.75684585 -31.21024607 38.44379331 -27.57568359 35.58447266 C-26.98094238 35.2807373 -26.38620117 34.97700195 -25.7734375 34.6640625 C-25.11859375 34.32246094 -24.46375 33.98085938 -23.7890625 33.62890625 C-23.11617187 33.29761719 -22.44328125 32.96632812 -21.75 32.625 C-21.069375 32.27050781 -20.38875 31.91601562 -19.6875 31.55078125 C-14.70412042 29 -14.70412042 29 -12.375 29 C-12.68282496 27.35328588 -12.99639234 25.70764424 -13.3125 24.0625 C-13.48652344 23.14597656 -13.66054687 22.22945312 -13.83984375 21.28515625 C-14.15214988 19.04710156 -14.15214988 19.04710156 -15.375 18 C-15.52752309 16.08759516 -15.59692773 14.16827201 -15.625 12.25 C-15.65078125 11.20328125 -15.6765625 10.1565625 -15.703125 9.078125 C-15.33405201 5.61586886 -14.41082218 3.79241135 -12.375 1 C-8.56458092 -1.75926899 -4.27561593 -1.80025934 0 0 Z " fill="#F3F3F3" transform="translate(183.375,9)"/>
<path d="M0 0 C1.0828125 0.37125 1.0828125 0.37125 2.1875 0.75 C2.5175 1.74 2.8475 2.73 3.1875 3.75 C3.8475 3.75 4.5075 3.75 5.1875 3.75 C7.26039477 19.14864685 5.97965178 32.73238022 2.87841797 47.90185547 C1.61269403 54.28562266 0.94998011 59.35374896 2.1875 65.75 C2.89968547 73.7007919 1.39570783 80.55763471 -0.79296875 88.14453125 C-1.8845542 92.00481236 -2.70036089 95.85338508 -3.41796875 99.796875 C-3.8125 101.75 -3.8125 101.75 -4.8125 104.75 C-6.4625 104.42 -8.1125 104.09 -9.8125 103.75 C-10.1425 102.1 -10.4725 100.45 -10.8125 98.75 C-9.4925 98.75 -8.1725 98.75 -6.8125 98.75 C-6.8125 98.09 -6.8125 97.43 -6.8125 96.75 C-7.4725 96.75 -8.1325 96.75 -8.8125 96.75 C-8.87308594 95.82058594 -8.93367188 94.89117187 -8.99609375 93.93359375 C-9.12177734 92.07927734 -9.12177734 92.07927734 -9.25 90.1875 C-9.33121094 88.96933594 -9.41242188 87.75117188 -9.49609375 86.49609375 C-9.79982296 82.9000899 -10.30213748 79.32253765 -10.8125 75.75 C-10.8125 82.68 -10.8125 89.61 -10.8125 96.75 C-11.8025 97.245 -11.8025 97.245 -12.8125 97.75 C-14.33988838 93.16783485 -14.41647582 88.55886509 -14.8125 83.75 C-14.8125 88.04 -14.8125 92.33 -14.8125 96.75 C-15.8025 97.245 -15.8025 97.245 -16.8125 97.75 C-17.71975434 99.86327425 -17.71975434 99.86327425 -18.4375 102.3125 C-18.69789063 103.13878906 -18.95828125 103.96507812 -19.2265625 104.81640625 C-19.41992188 105.45449219 -19.61328125 106.09257812 -19.8125 106.75 C-20.74431262 103.95456215 -21.10540154 101.42557669 -21.40893555 98.50952148 C-22.05709266 92.29380464 -23.02527917 86.65251878 -25 80.6875 C-27.37310587 73.09531257 -26.8175736 66.55024511 -25.8125 58.75 C-22.0703125 57.6875 -22.0703125 57.6875 -19.75 58.25 C-16.78908723 60.54231957 -16.10298866 63.26568061 -14.8125 66.75 C-14.8125 66.09 -14.8125 65.43 -14.8125 64.75 C-14.64786326 62.8331579 -14.4807803 60.91652567 -14.3125 59 C-13.74916238 51.89877221 -13.74056602 44.87146396 -13.8125 37.75 C-14.1425 45.34 -14.4725 52.93 -14.8125 60.75 C-15.4725 60.75 -16.1325 60.75 -16.8125 60.75 C-17.1425 58.11 -17.4725 55.47 -17.8125 52.75 C-18.4725 52.75 -19.1325 52.75 -19.8125 52.75 C-19.4825 54.4 -19.1525 56.05 -18.8125 57.75 C-21.1225 57.42 -23.4325 57.09 -25.8125 56.75 C-32.07472741 18.76581565 -32.07472741 18.76581565 -26.8125 1.75 C-25.8125 0.75 -25.8125 0.75 -22.25 0.6875 C-21.115625 0.708125 -19.98125 0.72875 -18.8125 0.75 C-18.6475 1.389375 -18.4825 2.02875 -18.3125 2.6875 C-17.030714 4.91119241 -17.030714 4.91119241 -14.8984375 5.23828125 C-12.87674845 5.4775978 -10.84408061 5.61893028 -8.8125 5.75 C-9.1425 7.4 -9.4725 9.05 -9.8125 10.75 C-9.1525 10.09 -8.4925 9.43 -7.8125 8.75 C-7.874375 7.96625 -7.93625 7.1825 -8 6.375 C-7.8125 3.75 -7.8125 3.75 -5.625 1.375 C-2.8125 -0.25 -2.8125 -0.25 0 0 Z " fill="#EFEFEF" transform="translate(188.8125,92.25)"/>
<path d="M0 0 C0.66 0.33 1.32 0.66 2 1 C1.505 1.53625 1.01 2.0725 0.5 2.625 C-1.37489544 5.59358445 -1.23501425 7.55312427 -1 11 C-0.071875 10.835 0.85625 10.67 1.8125 10.5 C5.86788886 9.86386057 9.02195323 10.13988178 13 11 C13 8.03 13 5.06 13 2 C13.66 2 14.32 2 15 2 C16.67689685 15.47506394 16.67689685 15.47506394 14 22 C13.41597867 24.58582128 13.41597867 24.58582128 14 27 C18.57806272 30.25795591 23.74672436 31.70001881 29.0390625 33.42578125 C32.81917772 35.43552589 33.5770259 37.0032573 35 41 C36.22500744 47.0962135 36.28712628 53.30249313 36.4296875 59.50390625 C36.62556669 64.34375464 37.42808853 66.83955497 40 71 C40.91409104 74.33639535 41.51464343 77.72165177 42.125 81.125 C42.45940536 82.91955702 42.79528009 84.71384101 43.1328125 86.5078125 C43.27605957 87.29816895 43.41930664 88.08852539 43.56689453 88.90283203 C43.99373283 91.17756541 43.99373283 91.17756541 45 94 C45.99 94.495 45.99 94.495 47 95 C47 95.66 47 96.32 47 97 C47.928125 97.37125 47.928125 97.37125 48.875 97.75 C51.41530728 99.2442984 52.02864183 100.24781851 53 103 C53 104.32 53 105.64 53 107 C52.0925 106.649375 51.185 106.29875 50.25 105.9375 C46.91886262 104.97659499 46.13374138 105.02070582 43 106 C41.00015623 106.02499805 38.99981542 106.02717141 37 106 C36.75765625 104.94941406 36.5153125 103.89882812 36.265625 102.81640625 C34.28431626 93.92728503 34.28431626 93.92728503 30.9375 85.5 C28.2736048 80.11977071 27.59050409 74.24648285 26.61328125 68.37890625 C26.1894088 65.14524011 26.1894088 65.14524011 25 63 C22.59360008 69.03004493 22.96565109 74.34058809 23.22265625 80.734375 C23.14917969 81.81203125 23.07570312 82.8896875 23 84 C22.01 84.66 21.02 85.32 20 86 C20.165 85.38125 20.33 84.7625 20.5 84.125 C21.20075317 79.74529271 21.07734251 75.42571011 21 71 C20.40574219 70.92652344 19.81148437 70.85304688 19.19921875 70.77734375 C16.21477994 69.7224533 15.46685918 68.2205321 13.8125 65.5625 C13.30332031 64.75941406 12.79414062 63.95632812 12.26953125 63.12890625 C11 61 11 61 10 59 C6.97065509 58.34227572 6.97065509 58.34227572 4 58 C3.90912109 56.85724609 3.90912109 56.85724609 3.81640625 55.69140625 C3.41500793 50.74494386 3.000583 45.80599823 2.4375 40.875 C2 37 2 37 2 35 C0.02 35 -1.96 35 -4 35 C-4 34.01 -4 33.02 -4 32 C-4.928125 32.515625 -5.85625 33.03125 -6.8125 33.5625 C-10 35 -10 35 -13 34 C-11.21046815 33.16209211 -9.41830305 32.32980604 -7.625 31.5 C-6.62726562 31.0359375 -5.62953125 30.571875 -4.6015625 30.09375 C-2 29 -2 29 0 29 C-0.28778244 27.47842689 -0.58046001 25.95777947 -0.875 24.4375 C-1.05289063 23.51839844 -1.23078125 22.59929688 -1.4140625 21.65234375 C-1.98135159 18.8215047 -1.98135159 18.8215047 -3.25 15.5 C-4.27109255 10.73490143 -3.51652539 6.60855214 -2 2 C-1.34 1.34 -0.68 0.68 0 0 Z " fill="#EFEFEF" transform="translate(41,10)"/>
<path d="M0 0 C1.134375 0.020625 2.26875 0.04125 3.4375 0.0625 C3.6025 0.701875 3.7675 1.34125 3.9375 2 C5.219286 4.22369241 5.219286 4.22369241 7.3515625 4.55078125 C9.37325155 4.7900978 11.40591939 4.93143028 13.4375 5.0625 C12.5625 9.9375 12.5625 9.9375 11.4375 11.0625 C11.15443766 13.61006104 10.98934214 16.15760022 10.81640625 18.71484375 C10.4375 21.0625 10.4375 21.0625 8.4375 23.0625 C8.7675 23.3925 9.0975 23.7225 9.4375 24.0625 C10.32613933 29.07213929 10.63429973 34.03337506 10.75390625 39.109375 C10.77473267 39.87081818 10.79555908 40.63226135 10.8170166 41.41677856 C10.88265298 43.88192474 10.94171987 46.34716975 11 48.8125 C11.03176834 50.07057465 11.03176834 50.07057465 11.06417847 51.35406494 C11.43955247 66.25923743 11.56365817 81.15254514 11.4375 96.0625 C10.4475 96.5575 10.4475 96.5575 9.4375 97.0625 C7.91011162 92.48033485 7.83352418 87.87136509 7.4375 83.0625 C7.4375 87.3525 7.4375 91.6425 7.4375 96.0625 C6.4475 96.5575 6.4475 96.5575 5.4375 97.0625 C4.53024566 99.17577425 4.53024566 99.17577425 3.8125 101.625 C3.55210937 102.45128906 3.29171875 103.27757812 3.0234375 104.12890625 C2.83007812 104.76699219 2.63671875 105.40507812 2.4375 106.0625 C1.50568738 103.26706215 1.14459846 100.73807669 0.84106445 97.82202148 C0.19290734 91.60630464 -0.77527917 85.96501878 -2.75 80 C-5.12310587 72.40781257 -4.5675736 65.86274511 -3.5625 58.0625 C0.1796875 57 0.1796875 57 2.5 57.5625 C5.46091277 59.85481957 6.14701134 62.57818061 7.4375 66.0625 C7.4375 65.4025 7.4375 64.7425 7.4375 64.0625 C7.60213674 62.1456579 7.7692197 60.22902567 7.9375 58.3125 C8.50083762 51.21127221 8.50943398 44.18396396 8.4375 37.0625 C8.1075 44.6525 7.7775 52.2425 7.4375 60.0625 C6.7775 60.0625 6.1175 60.0625 5.4375 60.0625 C5.1075 57.4225 4.7775 54.7825 4.4375 52.0625 C3.7775 52.0625 3.1175 52.0625 2.4375 52.0625 C2.7675 53.7125 3.0975 55.3625 3.4375 57.0625 C1.1275 56.7325 -1.1825 56.4025 -3.5625 56.0625 C-9.82472741 18.07831565 -9.82472741 18.07831565 -4.5625 1.0625 C-3.5625 0.0625 -3.5625 0.0625 0 0 Z " fill="#FAFAFA" transform="translate(166.5625,92.9375)"/>
<path d="M0 0 C0.33 0 0.66 0 1 0 C0.96519531 1.1859375 0.93039063 2.371875 0.89453125 3.59375 C0.62236031 17.03062015 1.18191291 30.60494489 7 43 C7.66 43.33 8.32 43.66 9 44 C9.625 47.0625 9.625 47.0625 10 50 C10.33 49.34 10.66 48.68 11 48 C11.66 48 12.32 48 13 48 C13 46.68 13 45.36 13 44 C13.66 44 14.32 44 15 44 C15.02505615 43.22398437 15.0501123 42.44796875 15.07592773 41.6484375 C15.19267745 38.09882269 15.3150431 34.54942232 15.4375 31 C15.47681641 29.77925781 15.51613281 28.55851562 15.55664062 27.30078125 C15.77308103 21.14055436 16.09281831 15.09870047 17 9 C17.33 9 17.66 9 18 9 C19.67803582 16.91595159 20.38750573 24.60774702 20.625 32.6875 C20.66367187 33.78255859 20.70234375 34.87761719 20.7421875 36.00585938 C20.83527252 38.670418 20.92109852 41.33499022 21 44 C22.485 44.495 22.485 44.495 24 45 C24 45.99 24 46.98 24 48 C23.01 48.495 23.01 48.495 22 49 C21.95065344 54.80239614 21.91430598 60.60467081 21.89013672 66.40722656 C21.88006373 68.38218309 21.86640479 70.35712466 21.84912109 72.33203125 C21.82492961 75.16670418 21.81353009 78.00118038 21.8046875 80.8359375 C21.79436493 81.72243988 21.78404236 82.60894226 21.77340698 83.52230835 C21.7730093 85.68285952 21.87727466 87.84293718 22 90 C22.66 90.66 23.32 91.32 24 92 C24.4140625 94.05859375 24.4140625 94.05859375 24.625 96.4375 C24.69976562 97.21996094 24.77453125 98.00242187 24.8515625 98.80859375 C24.96855767 100.53581186 25 102.26882402 25 104 C21.46209597 100.30827405 21.40884117 96.90609405 21 92 C20.34 92 19.68 92 19 92 C18.96261719 92.74765625 18.92523438 93.4953125 18.88671875 94.265625 C18.78810547 95.74289063 18.78810547 95.74289063 18.6875 97.25 C18.62949219 98.22453125 18.57148437 99.1990625 18.51171875 100.203125 C17.95363476 103.25341611 17.03630224 104.70711276 15 107 C11.15837998 105.75406918 8.8854141 104.66608297 7 101 C7.22169657 98.1918435 7.98522998 96.03562182 9.0625 93.4375 C11.36055579 85.01129544 10.30473286 78.19521949 7.0625 70.1875 C3.84098464 62.17392278 3.30817186 54.70015788 3.31469727 46.10620117 C3.28327553 39.7981505 2.225009 34.87850234 0 29 C-1.38008486 24.05866167 -1.1470315 19.030449 -1.125 13.9375 C-1.12886719 13.03966797 -1.13273437 12.14183594 -1.13671875 11.21679688 C-1.13542969 10.34990234 -1.13414063 9.48300781 -1.1328125 8.58984375 C-1.13168457 7.80472412 -1.13055664 7.01960449 -1.12939453 6.21069336 C-1.00121514 4.0207606 -0.60390331 2.10406629 0 0 Z " fill="#E2E2E2" transform="translate(31,106)"/>
<path d="M0 0 C2.52480693 2.52480693 2.55738633 4.13823034 3.125 7.625 C3.29257813 8.62789062 3.46015625 9.63078125 3.6328125 10.6640625 C3.75398437 11.43492188 3.87515625 12.20578125 4 13 C7.62885324 13.15149298 7.62885324 13.15149298 11 12 C10.67 12.99 10.34 13.98 10 15 C7.4375 16.1875 7.4375 16.1875 5 17 C5 19.31 5 21.62 5 24 C6.65 24 8.3 24 10 24 C10.33 24.66 10.66 25.32 11 26 C8.69 26.33 6.38 26.66 4 27 C-0.69496518 44.52228075 1.98277754 63.43545498 5 81 C6.98 81.66 8.96 82.32 11 83 C10.505 80.525 10.505 80.525 10 78 C10.66 78 11.32 78 12 78 C12.33 80.64 12.66 83.28 13 86 C13.66 86 14.32 86 15 86 C14.99214478 84.9941687 14.99214478 84.9941687 14.98413086 83.96801758 C14.96328395 80.916188 14.95031531 77.86437344 14.9375 74.8125 C14.92912109 73.75740234 14.92074219 72.70230469 14.91210938 71.61523438 C14.90727539 70.08286133 14.90727539 70.08286133 14.90234375 68.51953125 C14.89448853 67.11344604 14.89448853 67.11344604 14.88647461 65.67895508 C14.99917343 63.01950523 15.40623351 60.59079427 16 58 C16.33 58 16.66 58 17 58 C17.02921779 62.02081788 17.04687188 66.04160814 17.0625 70.0625 C17.07087891 71.19623047 17.07925781 72.32996094 17.08789062 73.49804688 C17.10429831 79.12588328 16.91712615 84.45138682 16 90 C16.31595508 91.67004829 16.65179959 93.33637583 17 95 C17.09263766 98.33495585 17.05828911 101.66456775 17 105 C16.67 105 16.34 105 16 105 C15.80664062 103.80761719 15.61328125 102.61523438 15.4140625 101.38671875 C15.15142084 99.82024888 14.88837912 98.25384605 14.625 96.6875 C14.49867188 95.90181641 14.37234375 95.11613281 14.2421875 94.30664062 C14.11328125 93.54931641 13.984375 92.79199219 13.8515625 92.01171875 C13.73635254 91.31522217 13.62114258 90.61872559 13.50244141 89.90112305 C13.02824879 87.69171241 13.02824879 87.69171241 11 85 C7.93443402 84.26656572 7.93443402 84.26656572 5 84 C3.55412311 93.70598543 4.16830499 101.08107267 7.08935547 110.40527344 C9.12033052 116.97565587 9.8659133 123.10062991 10 130 C10.66 126.7 11.32 123.4 12 120 C12.66 120.66 13.32 121.32 14 122 C14 117.38 14 112.76 14 108 C14.99 107.505 14.99 107.505 16 107 C16.06058594 107.91523438 16.12117188 108.83046875 16.18359375 109.7734375 C16.30927734 111.55621094 16.30927734 111.55621094 16.4375 113.375 C16.51871094 114.55835938 16.59992188 115.74171875 16.68359375 116.9609375 C16.81084936 119.91518901 16.81084936 119.91518901 18 122 C17.98952637 121.19780029 17.97905273 120.39560059 17.96826172 119.5690918 C17.92674233 115.94192628 17.90068657 112.31481072 17.875 108.6875 C17.85824219 107.42486328 17.84148437 106.16222656 17.82421875 104.86132812 C17.81777344 103.65283203 17.81132812 102.44433594 17.8046875 101.19921875 C17.79421387 100.08377686 17.78374023 98.96833496 17.77294922 97.8190918 C18 95 18 95 20 92 C19.97679687 92.6084375 19.95359375 93.216875 19.9296875 93.84375 C19.7914502 100.558133 20.38743947 106.97719943 21.37646484 113.60351562 C21.83902026 116.84856877 22.05326187 118.84021439 21 122 C21.66 122 22.32 122 23 122 C23 122.66 23 123.32 23 124 C21.68 124 20.36 124 19 124 C19.33 125.65 19.66 127.3 20 129 C21.32 129 22.64 129 24 129 C24.33 128.01 24.66 127.02 25 126 C26.5625 124.3125 26.5625 124.3125 28 123 C28 125.66666667 28 128.33333333 28 131 C28.33 131.9075 28.66 132.815 29 133.75 C30.61538462 139 30.61538462 139 30 142 C27.1875 144.8125 27.1875 144.8125 24 147 C23.01 147 22.02 147 21 147 C18.57188075 141.17251381 18.38272093 135.2242509 18 129 C18.02320313 129.79664063 18.04640625 130.59328125 18.0703125 131.4140625 C18.24956063 141.93848858 18.24956063 141.93848858 16 147 C12.18437925 146.47005267 9.80329851 145.68511623 7 143 C6.62524414 140.74194336 6.62524414 140.74194336 6.78515625 138.08984375 C6.84316406 136.61946655 6.84316406 136.61946655 6.90234375 135.11938477 C6.98162109 133.54435181 6.98162109 133.54435181 7.0625 131.9375 C7.28483048 124.13682658 7.04899546 117.45709347 4.5 110.0625 C1.69409129 101.75544556 1.73556224 94.10872193 1.95703125 85.39892578 C2.09892647 78.56187136 1.67459816 72.17173137 0.5 65.4375 C-1.6247737 52.99081229 -1.6614758 41.33966985 0.93212891 28.93286133 C2.04667506 23.53002282 3.10070083 17.75175206 1 12.5 C0.67 12.005 0.34 11.51 0 11 C-0.33 13.31 -0.66 15.62 -1 18 C-1.33 18 -1.66 18 -2 18 C-2.20190089 11.64012196 -1.6277833 6.14778871 0 0 Z " fill="#C7C7C7" transform="translate(159,67)"/>
<path d="M0 0 C0.66 0 1.32 0 2 0 C0.98563176 2.18479312 0.06150201 3.93148214 -1.5559082 5.73339844 C-3.50120307 8.78667275 -3.34207004 10.91486407 -3.29296875 14.515625 C-3.28330078 15.76601563 -3.27363281 17.01640625 -3.26367188 18.3046875 C-3.23853516 19.60664062 -3.21339844 20.90859375 -3.1875 22.25 C-3.17396484 23.56742188 -3.16042969 24.88484375 -3.14648438 26.2421875 C-3.11112551 29.49520321 -3.06177033 32.747396 -3 36 C-2.01 36 -1.02 36 0 36 C1.98697306 29.31427305 3.42978625 22.95660771 4 16 C5.32 17.32 6.64 18.64 8 20 C7.34 20 6.68 20 6 20 C6.57021934 25.3503559 7.20734361 30.67787852 8 36 C10.88437779 34.70700306 12.87219421 33.34058637 15 31 C13.75023244 34.65316671 13.32901247 35.78065836 10 38 C9.30147068 40.51265226 9.30147068 40.51265226 9.125 43.375 C9.02445313 44.33148438 8.92390625 45.28796875 8.8203125 46.2734375 C9.03006238 49.456164 9.87900749 50.68119472 12 53 C11.01 52.67 10.02 52.34 9 52 C8.34 54.97 7.68 57.94 7 61 C6.67 61 6.34 61 6 61 C5.97274659 59.2709226 5.95349013 57.54171824 5.9375 55.8125 C5.92589844 54.84957031 5.91429688 53.88664062 5.90234375 52.89453125 C5.99545952 50.13457975 6.41994973 47.69214171 7 45 C7.40870018 38.76732226 6.45838552 34.73623289 4 29 C3.90203125 29.93199219 3.8040625 30.86398438 3.703125 31.82421875 C2.81231373 39.41915275 1.44142232 46.24335916 -0.98828125 53.5234375 C-2.39149831 58.34530307 -3.19619852 63.2188716 -3.96069336 68.17724609 C-4.57401576 72.04870127 -5.49282913 75.39309535 -7 79 C-7 79.99 -7 80.98 -7 82 C-10.13164763 83.85579119 -12.37222163 84.28640356 -16 84 C-16.66 83.67 -17.32 83.34 -18 83 C-18.125 76.375 -18.125 76.375 -17 73 C-18.485 73.495 -18.485 73.495 -20 74 C-20.33 73.01 -20.66 72.02 -21 71 C-19.26829198 67.9855453 -17.69565716 65.54962226 -14.953125 63.3828125 C-12.05571576 59.84797323 -11.95116304 56.26309724 -11.4375 51.8125 C-10.83524119 46.9128332 -10.22176629 42.34515938 -8.46875 37.7109375 C-6.02499594 30.85202915 -6.21912831 23.53607708 -5.91601562 16.33007812 C-5.51794706 9.38599309 -5.03051805 5.03051805 0 0 Z " fill="#F3F3F3" transform="translate(26,45)"/>
<path d="M0 0 C0 0.99 0 1.98 0 3 C1.98 2.67 3.96 2.34 6 2 C6.99 3.485 6.99 3.485 8 5 C7.34 6.32 6.68 7.64 6 9 C6.66 9.33 7.32 9.66 8 10 C7.98839844 10.66386719 7.97679688 11.32773437 7.96484375 12.01171875 C7.74392496 18.60065867 7.74392496 18.60065867 9 25 C9.99 25.66 10.98 26.32 12 27 C11.21625 27.4125 10.4325 27.825 9.625 28.25 C6.78445447 30.14369702 6.39953485 31.02598844 5 34 C2.5625 36.75 2.5625 36.75 0 39 C-0.99 39 -1.98 39 -3 39 C-6.54216867 27.15060241 -6.54216867 27.15060241 -6 22 C-5.67 21.67 -5.34 21.34 -5 21 C-5.33 20.67 -5.66 20.34 -6 20 C-6.12117188 20.68964844 -6.24234375 21.37929688 -6.3671875 22.08984375 C-7.43859906 28.09799013 -8.63482823 34.05175157 -10 40 C-11.9375 39.6875 -11.9375 39.6875 -14 39 C-15.64614716 34.06155853 -15.35203406 28.98466266 -15.4375 23.8125 C-15.48326172 22.70068359 -15.52902344 21.58886719 -15.57617188 20.44335938 C-15.66711141 13.76523436 -15.02276293 9.66096989 -10.66333008 4.49487305 C-7.62845921 1.76736471 -4.16525174 0 0 0 Z " fill="#F9F9F9" transform="translate(37,42)"/>
<path d="M0 0 C2.8125 0.25 2.8125 0.25 6 2 C7.88026276 6.45606987 8.52536361 11.2547514 9.34570312 15.99951172 C9.58351436 17.36952536 9.82674222 18.73861005 10.07543945 20.10668945 C10.42391805 22.04928724 10.74188944 23.99728224 11.05859375 25.9453125 C11.66858852 29.0810412 11.66858852 29.0810412 13.95703125 30.27734375 C14.96830078 30.63505859 14.96830078 30.63505859 16 31 C20 35.33333333 20 35.33333333 20 39 C19.01 39 18.02 39 17 39 C17 42.3 17 45.6 17 49 C15.02 49.495 15.02 49.495 13 50 C12.505 47.525 12.505 47.525 12 45 C11.67 46.32 11.34 47.64 11 49 C9.35 48.67 7.7 48.34 6 48 C4.27201539 42.79300638 2.90430562 37.75874474 2.1875 32.3125 C1.32306612 26.50951779 -0.60271271 21.49194478 -2.96801758 16.16333008 C-4.50943546 12.61973664 -5.33811735 9.87364877 -5 6 C-4.34 6 -3.68 6 -3 6 C-3 4.35 -3 2.7 -3 1 C-2.67 1.66 -2.34 2.32 -2 3 C-1.34 2.67 -0.68 2.34 0 2 C0 1.34 0 0.68 0 0 Z " fill="#E2E2E2" transform="translate(202,80)"/>
<path d="M0 0 C0.99 0.33 1.98 0.66 3 1 C3.99 0.67 4.98 0.34 6 0 C7.77041715 7.08166858 6.18460091 11.79340929 3.47729492 18.32861328 C0.25693785 26.35576524 -1.16090125 34.69570193 -2.61450195 43.19091797 C-3 45 -3 45 -4 47 C-9.22222222 49 -9.22222222 49 -12 49 C-12.33 48.67 -12.66 48.34 -13 48 C-13.66 48 -14.32 48 -15 48 C-14.814375 47.2575 -14.62875 46.515 -14.4375 45.75 C-14.00796892 43.05009037 -14.14877026 41.55368923 -15 39 C-15.99 39 -16.98 39 -18 39 C-17.58016074 34.10187531 -15.47121495 32.305919 -12 29 C-8.68149835 24.57809655 -8.12385826 20.14386022 -7.375 14.8125 C-7.13554102 13.19360448 -6.89347707 11.57509148 -6.6484375 9.95703125 C-6.54708496 9.24522705 -6.44573242 8.53342285 -6.34130859 7.80004883 C-6 6 -6 6 -5 4 C-4.34 4 -3.68 4 -3 4 C-3 3.34 -3 2.68 -3 2 C-2.01 1.34 -1.02 0.68 0 0 Z " fill="#ECECEC" transform="translate(150,81)"/>
<path d="M0 0 C0.33 0 0.66 0 1 0 C2.18711389 10.58364898 2.11521814 21.11884033 2.0625 31.75 C2.05747286 33.5260404 2.05291211 35.30208218 2.04882812 37.078125 C2.03792357 41.38545148 2.02072652 45.69271005 2 50 C5.24849977 48.27773504 5.24849977 48.27773504 6 45 C8.0625 44.3125 8.0625 44.3125 10 44 C10 44.66 10 45.32 10 46 C10.99 46.33 11.98 46.66 13 47 C14.85468054 57.43257801 13.9433772 66.25922074 11.01953125 76.39453125 C9.9279458 80.25481236 9.11213911 84.10338508 8.39453125 88.046875 C8 90 8 90 7 93 C5.35 92.67 3.7 92.34 2 92 C1.505 89.525 1.505 89.525 1 87 C2.32 87 3.64 87 5 87 C5 86.34 5 85.68 5 85 C4.34 85 3.68 85 3 85 C2.93941406 84.07058594 2.87882813 83.14117187 2.81640625 82.18359375 C2.32434425 74.66529441 2.32434425 74.66529441 1.4375 67.1875 C0.97810142 63.84045323 0.96357236 60.67831658 1.0625 57.30859375 C1.05805955 54.93532173 1.05805955 54.93532173 0.51586914 52.38452148 C-0.08655173 48.43215016 -0.22828553 44.52783281 -0.31640625 40.5390625 C-0.33718735 39.74849457 -0.35796844 38.95792664 -0.37937927 38.1434021 C-0.44435582 35.63734983 -0.50351643 33.13119976 -0.5625 30.625 C-0.60573468 28.91795895 -0.64935049 27.21092751 -0.69335938 25.50390625 C-0.7999834 21.33603574 -0.90139441 17.16806761 -1 13 C-1.66 12.67 -2.32 12.34 -3 12 C-2.34 11.34 -1.68 10.68 -1 10 C-0.53837573 7.56747339 -0.53837573 7.56747339 -0.375 4.875 C-0.30023438 3.96492188 -0.22546875 3.05484375 -0.1484375 2.1171875 C-0.09945312 1.41851562 -0.05046875 0.71984375 0 0 Z " fill="#E9E9E9" transform="translate(177,104)"/>
<path d="M0 0 C0.33 0 0.66 0 1 0 C1.03738281 0.73605469 1.07476562 1.47210938 1.11328125 2.23046875 C1.21189453 3.69419922 1.21189453 3.69419922 1.3125 5.1875 C1.39951172 6.63189453 1.39951172 6.63189453 1.48828125 8.10546875 C1.81477005 11.01900591 1.81477005 11.01900591 3.41015625 13.23046875 C5.74597233 17.29949479 6.30308562 21.54200541 7.125 26.125 C7.45940536 27.91955702 7.79528009 29.71384101 8.1328125 31.5078125 C8.27605957 32.29816895 8.41930664 33.08852539 8.56689453 33.90283203 C8.99373283 36.17756541 8.99373283 36.17756541 10 39 C10.66 39.33 11.32 39.66 12 40 C12 40.66 12 41.32 12 42 C12.61875 42.2475 13.2375 42.495 13.875 42.75 C16.41530728 44.2442984 17.02864183 45.24781851 18 48 C18 49.32 18 50.64 18 52 C17.0925 51.649375 16.185 51.29875 15.25 50.9375 C11.91886262 49.97659499 11.13374138 50.02070582 8 51 C6.00015623 51.02499805 3.99981542 51.02717141 2 51 C1.75765625 49.94941406 1.5153125 48.89882812 1.265625 47.81640625 C-0.36860499 40.9116611 -2.0143774 34.42500735 -5.1171875 28.01171875 C-7.66074856 22.21555085 -8.26634639 16.25914012 -8 10 C-6 13 -6 13 -5 15 C-3.68 15 -2.36 15 -1 15 C-0.67 10.05 -0.34 5.1 0 0 Z " fill="#DFDFDF" transform="translate(76,65)"/>
<path d="M0 0 C1.39959626 4.19878879 0.07225881 7.57799409 -0.9375 11.75 C-2.9050587 20.34282651 -3.47347419 28.20127125 -3 37 C-3.60585937 36.50371094 -4.21171875 36.00742188 -4.8359375 35.49609375 C-6.92162103 33.74069964 -6.92162103 33.74069964 -9.625 34.0625 C-12.08604622 34.78531425 -12.08604622 34.78531425 -13.25 36.75 C-14.0504782 39.15143459 -14.58404921 41.50429527 -15 44 C-15.99 44 -16.98 44 -18 44 C-17.34 42.35 -16.68 40.7 -16 39 C-16.9075 39.0825 -17.815 39.165 -18.75 39.25 C-22 39 -22 39 -24.3125 37.125 C-26 35 -26 35 -27 33 C-28.98 33 -30.96 33 -33 33 C-33 29.7 -33 26.4 -33 23 C-32.67 23.66 -32.34 24.32 -32 25 C-31.4225 24.71125 -30.845 24.4225 -30.25 24.125 C-28.84960323 23.42480162 -27.43441946 22.75255852 -26 22.125 C-23.82751002 21.04007137 -23.82751002 21.04007137 -22 18.8125 C-20 17 -20 17 -18.0625 17 C-15.36974884 18.30557632 -13.26059698 20.05337483 -11 22 C-10.67 21.34 -10.34 20.68 -10 20 C-9.01 20.66 -8.02 21.32 -7 22 C-6.01 21.67 -5.02 21.34 -4 21 C-3.96261719 20.32195312 -3.92523438 19.64390625 -3.88671875 18.9453125 C-3.41514671 12.26933186 -2.18078865 6.32291553 0 0 Z " fill="#DCDBDB" transform="translate(196,59)"/>
<path d="M0 0 C0.33 0 0.66 0 1 0 C2.67803582 7.91595159 3.38750573 15.60774702 3.625 23.6875 C3.66367187 24.78255859 3.70234375 25.87761719 3.7421875 27.00585938 C3.83527252 29.670418 3.92109852 32.33499022 4 35 C4.99 35.33 5.98 35.66 7 36 C7 36.99 7 37.98 7 39 C6.01 39.495 6.01 39.495 5 40 C4.95065344 45.80239614 4.91430598 51.60467081 4.89013672 57.40722656 C4.88006373 59.38218309 4.86640479 61.35712466 4.84912109 63.33203125 C4.82492961 66.16670418 4.81353009 69.00118038 4.8046875 71.8359375 C4.79436493 72.72243988 4.78404236 73.60894226 4.77340698 74.52230835 C4.7730093 76.68285952 4.87727466 78.84293718 5 81 C5.66 81.66 6.32 82.32 7 83 C7.4140625 85.05859375 7.4140625 85.05859375 7.625 87.4375 C7.69976562 88.21996094 7.77453125 89.00242187 7.8515625 89.80859375 C7.96855767 91.53581186 8 93.26882402 8 95 C5.47138173 92.36144181 4.78109738 90.35664336 4.4375 86.8125 C4.2209375 84.9253125 4.2209375 84.9253125 4 83 C3.34 82.67 2.68 82.34 2 82 C-0.37997584 75.22735269 -0.05964125 68.00405729 0.0625 60.9375 C0.31687677 50.62801073 0.31687677 50.62801073 -3 41 C-3.99 40.34 -4.98 39.68 -6 39 C-5.34 39 -4.68 39 -4 39 C-4 37.68 -4 36.36 -4 35 C-3.34 35 -2.68 35 -2 35 C-1.97494385 34.22398437 -1.9498877 33.44796875 -1.92407227 32.6484375 C-1.80732255 29.09882269 -1.6849569 25.54942232 -1.5625 22 C-1.50352539 20.16888672 -1.50352539 20.16888672 -1.44335938 18.30078125 C-1.22691897 12.14055436 -0.90718169 6.09870047 0 0 Z " fill="#B0B0B0" transform="translate(48,115)"/>
<path d="M0 0 C0.165 0.61875 0.33 1.2375 0.5 1.875 C2.8583592 5.21600887 6.14380552 5.2651403 10 6 C11.33521402 6.3257183 12.66916027 6.65684626 14 7 C13.01 7.33 12.02 7.66 11 8 C10.27743171 12.48133574 10.27743171 12.48133574 10 17 C10.66 17.66 11.32 18.32 12 19 C11.34 19 10.68 19 10 19 C10 22.3 10 25.6 10 29 C7.69 29 5.38 29 3 29 C2.87882813 29.99902344 2.75765625 30.99804688 2.6328125 32.02734375 C2.38144531 33.96287109 2.38144531 33.96287109 2.125 35.9375 C1.96257812 37.22527344 1.80015625 38.51304688 1.6328125 39.83984375 C1.42398438 40.88269531 1.21515625 41.92554688 1 43 C0.01 43.495 0.01 43.495 -1 44 C-0.67 39.71 -0.34 35.42 0 31 C-1.093125 30.731875 -2.18625 30.46375 -3.3125 30.1875 C-6.61692663 29.12336261 -7.94960422 28.65345336 -10 26 C-9.67 25.67 -9.34 25.34 -9 25 C-9.66 24.34 -10.32 23.68 -11 23 C-9.21118264 21.99491199 -7.41885304 20.99607264 -5.625 20 C-4.62726563 19.443125 -3.62953125 18.88625 -2.6015625 18.3125 C0 17 0 17 2 17 C1.69217504 15.35328588 1.37860766 13.70764424 1.0625 12.0625 C0.88847656 11.14597656 0.71445313 10.22945312 0.53515625 9.28515625 C0.22285012 7.04710156 0.22285012 7.04710156 -1 6 C-1.125 3.5 -1.125 3.5 -1 1 C-0.67 0.67 -0.34 0.34 0 0 Z " fill="#D7D7D7" transform="translate(169,21)"/>
<path d="M0 0 C0.53625 0.33 1.0725 0.66 1.625 1 C1.625 2.32 1.625 3.64 1.625 5 C2.285 5 2.945 5 3.625 5 C3.84711116 6.93596892 4.05222992 8.87389328 4.25 10.8125 C4.42402344 12.43091797 4.42402344 12.43091797 4.6015625 14.08203125 C4.625 17 4.625 17 2.625 20 C2.38349227 22.51584891 2.38349227 22.51584891 2.5 25.1875 C2.52707031 26.53908203 2.52707031 26.53908203 2.5546875 27.91796875 C2.57789063 28.60503906 2.60109375 29.29210937 2.625 30 C1.965 30 1.305 30 0.625 30 C-0.86998913 27.01002175 -0.49077446 24.29957225 -0.375 21 C-0.045 20.01 0.285 19.02 0.625 18 C-0.385625 18.20625 -1.39625 18.4125 -2.4375 18.625 C-6.87006869 19.0471494 -9.23608962 18.4359485 -13.375 17 C-13.375 15.35 -13.375 13.7 -13.375 12 C-14.035 12 -14.695 12 -15.375 12 C-15.69905231 7.35525026 -15.25973323 4.70894272 -12.375 1 C-8.56458092 -1.75926899 -4.27561593 -1.80025934 0 0 Z " fill="#E5E5E5" transform="translate(183.375,9)"/>
<path d="M0 0 C0.66 0.33 1.32 0.66 2 1 C1.505 1.53625 1.01 2.0725 0.5 2.625 C-1.37489544 5.59358445 -1.23501425 7.55312427 -1 11 C-0.071875 10.835 0.85625 10.67 1.8125 10.5 C5.86788886 9.86386057 9.02195323 10.13988178 13 11 C13 8.03 13 5.06 13 2 C13.66 2 14.32 2 15 2 C16.67689685 15.47506394 16.67689685 15.47506394 14 22 C13.63712818 25.81015416 13.80423213 26.7063482 16 30 C14.35 30 12.7 30 11 30 C11 28.35 11 26.7 11 25 C10.34 25.66 9.68 26.32 9 27 C6.38419521 26.6730244 4.35921863 26.17960932 2 25 C2 26.32 2 27.64 2 29 C1.34 29 0.68 29 0 29 C-0.12117188 28.35933594 -0.24234375 27.71867187 -0.3671875 27.05859375 C-0.53476562 26.19363281 -0.70234375 25.32867187 -0.875 24.4375 C-1.05289063 23.51839844 -1.23078125 22.59929688 -1.4140625 21.65234375 C-1.98135159 18.8215047 -1.98135159 18.8215047 -3.25 15.5 C-4.27109255 10.73490143 -3.51652539 6.60855214 -2 2 C-1.34 1.34 -0.68 0.68 0 0 Z " fill="#CBCBCB" transform="translate(41,10)"/>
<path d="M0 0 C2.52480693 2.52480693 2.55738633 4.13823034 3.125 7.625 C3.29257813 8.62789062 3.46015625 9.63078125 3.6328125 10.6640625 C3.75398437 11.43492188 3.87515625 12.20578125 4 13 C7.62885324 13.15149298 7.62885324 13.15149298 11 12 C10.67 12.99 10.34 13.98 10 15 C7.4375 16.1875 7.4375 16.1875 5 17 C5 19.31 5 21.62 5 24 C6.65 24 8.3 24 10 24 C10.33 24.66 10.66 25.32 11 26 C8.69 26.33 6.38 26.66 4 27 C-0.69496518 44.52228075 1.98277754 63.43545498 5 81 C6.98 81.66 8.96 82.32 11 83 C10.505 80.525 10.505 80.525 10 78 C10.66 78 11.32 78 12 78 C12.33 80.64 12.66 83.28 13 86 C13.66 86 14.32 86 15 86 C14.99214478 84.9941687 14.99214478 84.9941687 14.98413086 83.96801758 C14.96328395 80.916188 14.95031531 77.86437344 14.9375 74.8125 C14.92912109 73.75740234 14.92074219 72.70230469 14.91210938 71.61523438 C14.90727539 70.08286133 14.90727539 70.08286133 14.90234375 68.51953125 C14.89448853 67.11344604 14.89448853 67.11344604 14.88647461 65.67895508 C14.99917343 63.01950523 15.40623351 60.59079427 16 58 C16.33 58 16.66 58 17 58 C17.02921779 62.02081788 17.04687188 66.04160814 17.0625 70.0625 C17.07087891 71.19623047 17.07925781 72.32996094 17.08789062 73.49804688 C17.10429831 79.12588328 16.91712615 84.45138682 16 90 C16.31595508 91.67004829 16.65179959 93.33637583 17 95 C17.09263766 98.33495585 17.05828911 101.66456775 17 105 C16.67 105 16.34 105 16 105 C15.80664062 103.80761719 15.61328125 102.61523438 15.4140625 101.38671875 C15.15142084 99.82024888 14.88837912 98.25384605 14.625 96.6875 C14.49867188 95.90181641 14.37234375 95.11613281 14.2421875 94.30664062 C14.11328125 93.54931641 13.984375 92.79199219 13.8515625 92.01171875 C13.73635254 91.31522217 13.62114258 90.61872559 13.50244141 89.90112305 C13.02824879 87.69171241 13.02824879 87.69171241 11 85 C9.02 84.67 7.04 84.34 5 84 C4.67 89.61 4.34 95.22 4 101 C3.34 101 2.68 101 2 101 C2.01571045 100.34741211 2.0314209 99.69482422 2.04760742 99.02246094 C2.28241725 87.70799572 2.43158907 76.61810936 0.5 65.4375 C-1.6225455 52.98992514 -1.66167203 41.34060854 0.93212891 28.93286133 C2.04667506 23.53002282 3.10070083 17.75175206 1 12.5 C0.67 12.005 0.34 11.51 0 11 C-0.33 13.31 -0.66 15.62 -1 18 C-1.33 18 -1.66 18 -2 18 C-2.20190089 11.64012196 -1.6277833 6.14778871 0 0 Z " fill="#A9A9A9" transform="translate(159,67)"/>
<path d="M0 0 C1.33904861 4.01714584 0.44421191 7.32094164 -0.3125 11.375 C-0.44333984 12.13039063 -0.57417969 12.88578125 -0.70898438 13.6640625 C-1.43651319 17.68480145 -2.42407222 21.21502061 -4 25 C-4 25.99 -4 26.98 -4 28 C-7.13164763 29.85579119 -9.37222163 30.28640356 -13 30 C-13.66 29.67 -14.32 29.34 -15 29 C-15.125 22.375 -15.125 22.375 -14 19 C-14.99 19.33 -15.98 19.66 -17 20 C-17.33 19.01 -17.66 18.02 -18 17 C-15.66507537 12.7791747 -13.17071831 9.48257042 -9 7 C-5.6875 7.25 -5.6875 7.25 -3 8 C-2.01 5.36 -1.02 2.72 0 0 Z " fill="#939393" transform="translate(23,99)"/>
<path d="M0 0 C5.67137038 8.50705557 6.67323782 19.01741546 7 29 C7.66 25.7 8.32 22.4 9 19 C11.475 20.98 11.475 20.98 14 23 C13.67 24.65 13.34 26.3 13 28 C12.34 28 11.68 28 11 28 C11 28.66 11 29.32 11 30 C11.66 30 12.32 30 13 30 C13 31.98 13 33.96 13 36 C11.35 36 9.7 36 8 36 C8 36.66 8 37.32 8 38 C8.804375 37.814375 9.60875 37.62875 10.4375 37.4375 C11.283125 37.293125 12.12875 37.14875 13 37 C14 38 14 38 14.125 40.9375 C14 44 14 44 13 46 C9.18417858 45.4700248 6.79895237 44.69110079 4 42 C3.609375 39.6784668 3.609375 39.6784668 3.75 36.94921875 C3.78351563 35.94665039 3.81703125 34.94408203 3.8515625 33.91113281 C3.90054688 32.84733398 3.94953125 31.78353516 4 30.6875 C4.22893899 21.96440398 3.83461995 14.87164736 0.875 6.609375 C0 4 0 4 0 0 Z " fill="#9C9C9C" transform="translate(162,168)"/>
<path d="M0 0 C2.1821694 2.19711577 2.94130353 3.48347103 3.29296875 6.578125 C3.25816406 7.45984375 3.22335938 8.3415625 3.1875 9.25 C3.16042969 10.14203125 3.13335937 11.0340625 3.10546875 11.953125 C3.07066406 12.62859375 3.03585938 13.3040625 3 14 C2.34 13.34 1.68 12.68 1 12 C-1.31534599 12.01692373 -1.31534599 12.01692373 -3.875 12.4375 C-7.2535431 12.91654716 -9.73062423 13.04163833 -13 12 C-13.50341475 6.7141451 -12.26910671 4.13445849 -9 0 C-5.8168485 -1.59157575 -3.38676935 -0.77242108 0 0 Z " fill="#F4F4F4" transform="translate(52,9)"/>
<path d="M0 0 C1.32 0 2.64 0 4 0 C3.814375 0.61875 3.62875 1.2375 3.4375 1.875 C2.76313824 4.04160178 2.76313824 4.04160178 4 6 C3.34 6 2.68 6 2 6 C1.979375 7.27875 1.95875 8.5575 1.9375 9.875 C1.92589844 10.59429687 1.91429687 11.31359375 1.90234375 12.0546875 C1.87350758 14.08185404 1.87350758 14.08185404 3 16 C3.35294118 22.47058824 3.35294118 22.47058824 1 26 C-1.625 26.1875 -1.625 26.1875 -4 26 C-4.06058594 25.23816406 -4.12117188 24.47632812 -4.18359375 23.69140625 C-4.58379652 18.75967671 -5.00125364 13.84646487 -5.625 8.9375 C-6 5 -6 5 -5 2 C-3.35 2.33 -1.7 2.66 0 3 C0 2.01 0 1.02 0 0 Z " fill="#D3D3D3" transform="translate(49,42)"/>
<path d="M0 0 C0.33 0 0.66 0 1 0 C0.96519531 0.91265625 0.96519531 0.91265625 0.9296875 1.84375 C0.7914502 8.558133 1.38743947 14.97719943 2.37646484 21.60351562 C2.83902026 24.84856877 3.05326187 26.84021439 2 30 C2.66 30 3.32 30 4 30 C4 30.66 4 31.32 4 32 C2.68 32 1.36 32 0 32 C0.34444881 34.47266765 0.34444881 34.47266765 1 37 C1.66 37.33 2.32 37.66 3 38 C2.67 39.98 2.34 41.96 2 44 C1.67 44 1.34 44 1 44 C0.01 40.535 0.01 40.535 -1 37 C-1 40.96 -1 44.92 -1 49 C-2.32 48.34 -3.64 47.68 -5 47 C-5.99 47 -6.98 47 -8 47 C-8 46.34 -8 45.68 -8 45 C-6.35 45 -4.7 45 -3 45 C-3 43.02 -3 41.04 -3 39 C-3.66 39 -4.32 39 -5 39 C-5 38.34 -5 37.68 -5 37 C-4.01 36.505 -4.01 36.505 -3 36 C-3.144375 35.278125 -3.28875 34.55625 -3.4375 33.8125 C-3.7159375 32.4203125 -3.7159375 32.4203125 -4 31 C-4.185625 30.278125 -4.37125 29.55625 -4.5625 28.8125 C-5.22542287 24.55085295 -5.07521621 20.30403877 -5 16 C-4.34 15.67 -3.68 15.34 -3 15 C-2.93941406 15.91523438 -2.87882813 16.83046875 -2.81640625 17.7734375 C-2.73261719 18.96195313 -2.64882812 20.15046875 -2.5625 21.375 C-2.48128906 22.55835938 -2.40007812 23.74171875 -2.31640625 24.9609375 C-2.18915064 27.91518901 -2.18915064 27.91518901 -1 30 C-1.00523682 29.19780029 -1.01047363 28.39560059 -1.01586914 27.5690918 C-1.03662897 23.94190247 -1.04965702 20.31472563 -1.0625 16.6875 C-1.07087891 15.42486328 -1.07925781 14.16222656 -1.08789062 12.86132812 C-1.09111328 11.65283203 -1.09433594 10.44433594 -1.09765625 9.19921875 C-1.10289307 8.08377686 -1.10812988 6.96833496 -1.11352539 5.8190918 C-1 3 -1 3 0 0 Z " fill="#8A8A8A" transform="translate(178,159)"/>
<path d="M0 0 C1.32 1.32 2.64 2.64 4 4 C3.34 4 2.68 4 2 4 C2.57021934 9.3503559 3.20734361 14.67787852 4 20 C6.88437779 18.70700306 8.87219421 17.34058637 11 15 C9.75023244 18.65316671 9.32901247 19.78065836 6 22 C5.30147068 24.51265226 5.30147068 24.51265226 5.125 27.375 C5.02445313 28.33148438 4.92390625 29.28796875 4.8203125 30.2734375 C5.03006238 33.456164 5.87900749 34.68119472 8 37 C7.01 36.67 6.02 36.34 5 36 C4.34 38.97 3.68 41.94 3 45 C2.67 45 2.34 45 2 45 C1.97274659 43.2709226 1.95349013 41.54171824 1.9375 39.8125 C1.92589844 38.84957031 1.91429687 37.88664062 1.90234375 36.89453125 C1.99545952 34.13457975 2.41994973 31.69214171 3 29 C3.40870018 22.76732226 2.45838552 18.73623289 0 13 C-0.10957031 13.96679688 -0.21914063 14.93359375 -0.33203125 15.9296875 C-1.2616852 23.56343135 -2.4275188 30.71130326 -5 38 C-6.12475154 34.62574537 -5.8675717 33.14496579 -5.25 29.6875 C-5.06050781 28.62273437 -4.87101562 27.55796875 -4.67578125 26.4609375 C-3.98026853 22.89894748 -3.2178631 19.35680924 -2.4375 15.8125 C-1.27724113 10.53273615 -0.464078 5.38330477 0 0 Z " fill="#A9A9A9" transform="translate(30,61)"/>
<path d="M0 0 C1.32 0 2.64 0 4 0 C3.67 1.65 3.34 3.3 3 5 C2.34 5 1.68 5 1 5 C1 5.66 1 6.32 1 7 C1.66 7 2.32 7 3 7 C3 8.98 3 10.96 3 13 C1.35 13 -0.3 13 -2 13 C-2 13.66 -2 14.32 -2 15 C-0.35 14.67 1.3 14.34 3 14 C3 15.32 3 16.64 3 18 C0.69 17.67 -1.62 17.34 -4 17 C-4.79953138 13.71303767 -5.09658936 12.28976808 -4 9 C-3.34 9 -2.68 9 -2 9 C-1.34 6.03 -0.68 3.06 0 0 Z " fill="#F7F7F7" transform="translate(172,191)"/>
<path d="M0 0 C0.33 0 0.66 0 1 0 C1.02921779 4.02081788 1.04687188 8.04160814 1.0625 12.0625 C1.07087891 13.19623047 1.07925781 14.32996094 1.08789062 15.49804688 C1.10429831 21.12588328 0.91712615 26.45138682 0 32 C0.31595508 33.67004829 0.65179959 35.33637583 1 37 C1.09263766 40.33495585 1.05828911 43.66456775 1 47 C0.67 47 0.34 47 0 47 C-0.19335938 45.80761719 -0.38671875 44.61523438 -0.5859375 43.38671875 C-0.84857916 41.82024888 -1.11162088 40.25384605 -1.375 38.6875 C-1.50132812 37.90181641 -1.62765625 37.11613281 -1.7578125 36.30664062 C-1.88671875 35.54931641 -2.015625 34.79199219 -2.1484375 34.01171875 C-2.26364746 33.31522217 -2.37885742 32.61872559 -2.49755859 31.90112305 C-2.97175121 29.69171241 -2.97175121 29.69171241 -5 27 C-7.56282742 26.27034634 -7.56282742 26.27034634 -10 26 C-10 25.34 -10 24.68 -10 24 C-8.35 24.33 -6.7 24.66 -5 25 C-5.33 23.35 -5.66 21.7 -6 20 C-5.34 20 -4.68 20 -4 20 C-3.67 22.64 -3.34 25.28 -3 28 C-2.34 28 -1.68 28 -1 28 C-1.00523682 27.3294458 -1.01047363 26.6588916 -1.01586914 25.96801758 C-1.03671605 22.916188 -1.04968469 19.86437344 -1.0625 16.8125 C-1.07087891 15.75740234 -1.07925781 14.70230469 -1.08789062 13.61523438 C-1.09111328 12.59365234 -1.09433594 11.57207031 -1.09765625 10.51953125 C-1.10289307 9.58214111 -1.10812988 8.64475098 -1.11352539 7.67895508 C-1.00082657 5.01950523 -0.59376649 2.59079427 0 0 Z " fill="#8F8F8F" transform="translate(175,125)"/>
<path d="M0 0 C2.97 0 5.94 0 9 0 C10.0111514 3.21729991 10.17213761 4.60136553 8.8125 7.75 C7 10 7 10 4.8125 10.8125 C4.214375 10.874375 3.61625 10.93625 3 11 C-1.06153846 5.70769231 -1.06153846 5.70769231 -0.75 2.125 C-0.5025 1.42375 -0.255 0.7225 0 0 Z " fill="#D3D3D3" transform="translate(44,103)"/>
<path d="M0 0 C0.66 0 1.32 0 2 0 C0.98563176 2.18479312 0.06150201 3.93148214 -1.5559082 5.73339844 C-3.50120307 8.78667275 -3.34207004 10.91486407 -3.29296875 14.515625 C-3.28330078 15.76601563 -3.27363281 17.01640625 -3.26367188 18.3046875 C-3.23853516 19.60664062 -3.21339844 20.90859375 -3.1875 22.25 C-3.16719727 24.22613281 -3.16719727 24.22613281 -3.14648438 26.2421875 C-3.11112551 29.49520321 -3.06177033 32.747396 -3 36 C-2.01 36 -1.02 36 0 36 C0 36.66 0 37.32 0 38 C-0.94875 37.79375 -1.8975 37.5875 -2.875 37.375 C-3.90625 37.25125 -4.9375 37.1275 -6 37 C-6.66 37.66 -7.32 38.32 -8 39 C-7.86722656 37.94683594 -7.73445313 36.89367187 -7.59765625 35.80859375 C-7.41849276 34.35165797 -7.24017073 32.89461857 -7.0625 31.4375 C-6.92110596 30.29124146 -6.92110596 30.29124146 -6.77685547 29.12182617 C-6.03009349 22.83409033 -5.69265614 16.60177798 -5.5390625 10.26953125 C-4.84624987 6.06747205 -3.02038626 3.02038626 0 0 Z " fill="#B7B7B7" transform="translate(26,45)"/>
<path d="M0 0 C0.66 0.33 1.32 0.66 2 1 C2.19249739 5.21706244 2.37118014 9.43441599 2.53710938 13.65258789 C2.59549105 15.08731756 2.65763834 16.52189917 2.72363281 17.95629883 C2.8178682 20.01876872 2.89852573 22.0813928 2.9765625 24.14453125 C3.02893066 25.38565674 3.08129883 26.62678223 3.13525391 27.90551758 C3 31 3 31 1 34 C-1.09682973 26.45301361 -1.07427243 19.72339125 -0.625 11.9375 C-0.56828125 10.78572266 -0.5115625 9.63394531 -0.453125 8.44726562 C-0.31288454 5.63076974 -0.16160641 2.81533698 0 0 Z " fill="#F8F8F8" transform="translate(48,130)"/>
<path d="M0 0 C0.93065133 2.60582371 1.14917407 3.64198224 0.0625 6.25 C-0.4634375 7.11625 -0.4634375 7.11625 -1 8 C0.175625 8.433125 0.175625 8.433125 1.375 8.875 C4 10 4 10 6 12 C6.33 8.37 6.66 4.74 7 1 C7.66 1.33 8.32 1.66 9 2 C8.91245449 3.75091019 8.80426627 5.50079551 8.6875 7.25 C8.62949219 8.22453125 8.57148437 9.1990625 8.51171875 10.203125 C7.95363476 13.25341611 7.03630224 14.70711276 5 17 C1.15837998 15.75406918 -1.1145859 14.66608297 -3 11 C-2.69754939 7.16895897 -1.26177385 3.61708503 0 0 Z " fill="#8F8F8F" transform="translate(41,196)"/>
<path d="M0 0 C0.33 0 0.66 0 1 0 C2.12084367 10.14013262 2.08634531 20.19242037 2 30.375 C1.97326101 33.57030926 1.95337661 36.76555791 1.9375 39.9609375 C1.92920166 40.67978119 1.92090332 41.39862488 1.91235352 42.13925171 C1.89264948 46.20483034 2.20787241 50.0120742 3 54 C-0.02843711 49.45734434 -0.20141571 46.27676488 -0.31640625 40.9296875 C-0.33718735 40.13345978 -0.35796844 39.33723206 -0.37937927 38.51687622 C-0.44484149 35.96967315 -0.50374415 33.42236575 -0.5625 30.875 C-0.6056884 29.14972873 -0.64930279 27.42446807 -0.69335938 25.69921875 C-0.80051945 21.46625315 -0.90179623 17.23318247 -1 13 C-1.66 12.67 -2.32 12.34 -3 12 C-2.34 11.34 -1.68 10.68 -1 10 C-0.53837573 7.56747339 -0.53837573 7.56747339 -0.375 4.875 C-0.30023438 3.96492188 -0.22546875 3.05484375 -0.1484375 2.1171875 C-0.09945312 1.41851562 -0.05046875 0.71984375 0 0 Z " fill="#7B7B7B" transform="translate(177,104)"/>
<path d="M0 0 C0.96706319 3.00864103 1.27677226 5.05360248 0 8 C-2.9439948 10.10285343 -5.44686299 10.28051082 -9 10 C-9.66 9.67 -10.32 9.34 -11 9 C-11 6.69 -11 4.38 -11 2 C-10.01 2.495 -10.01 2.495 -9 3 C-8.67 2.34 -8.34 1.68 -8 1 C-7.34 1.33 -6.68 1.66 -6 2 C-5.67 1.67 -5.34 1.34 -5 1 C-4.34 1.66 -3.68 2.32 -3 3 C-2.01 2.01 -1.02 1.02 0 0 Z " fill="#A0A0A0" transform="translate(19,119)"/>
<path d="M0 0 C0.66 0.33 1.32 0.66 2 1 C2 1.66 2 2.32 2 3 C2.33 3 2.66 3 3 3 C2.67 5.64 2.34 8.28 2 11 C3.65 11 5.3 11 7 11 C7.33 12.98 7.66 14.96 8 17 C6.34385343 17.38218767 4.67542976 17.71395102 3 18 C2.67 17.67 2.34 17.34 2 17 C1.34 17 0.68 17 0 17 C0.185625 16.2575 0.37125 15.515 0.5625 14.75 C0.99203108 12.05009037 0.85122974 10.55368923 0 8 C-0.99 8 -1.98 8 -3 8 C-2.45276317 4.62537285 -1.9451 2.91765 0 0 Z " fill="#545454" transform="translate(135,112)"/>
<path d="M0 0 C1.01573289 3.04719867 1.0097124 3.98833004 0.44140625 7.01171875 C0.30283203 7.76904297 0.16425781 8.52636719 0.02148438 9.30664062 C-0.20571289 10.48516602 -0.20571289 10.48516602 -0.4375 11.6875 C-0.58509766 12.48478516 -0.73269531 13.28207031 -0.88476562 14.10351562 C-1.24984964 16.07025852 -1.62405289 18.03530467 -2 20 C-5.4375 19.1875 -5.4375 19.1875 -9 18 C-9.33 17.01 -9.66 16.02 -10 15 C-9.34 14.01 -8.68 13.02 -8 12 C-7.34 12 -6.68 12 -6 12 C-5.67 12.99 -5.34 13.98 -5 15 C-4.34 15.33 -3.68 15.66 -3 16 C-3 14.02 -3 12.04 -3 10 C-3.99 9.67 -4.98 9.34 -6 9 C-5.01 8.67 -4.02 8.34 -3 8 C-1.98245132 6.1346755 -1.98245132 6.1346755 -1.3125 3.9375 C-1.06113281 3.20402344 -0.80976563 2.47054687 -0.55078125 1.71484375 C-0.36902344 1.14894531 -0.18726563 0.58304687 0 0 Z " fill="#9E9E9E" transform="translate(23,99)"/>
<path d="M0 0 C0.99 0 1.98 0 3 0 C5.5654594 2.5654594 5.54046087 4.47686668 6 8 C5.34 8 4.68 8 4 8 C3.67 8.66 3.34 9.32 3 10 C2.34 9.67 1.68 9.34 1 9 C0.01 9.33 -0.98 9.66 -2 10 C-2.91058531 6.92677456 -3.08886184 4.19902639 -3 1 C-2.34 1 -1.68 1 -1 1 C-0.67 0.67 -0.34 0.34 0 0 Z " fill="#5E5E5E" transform="translate(87,117)"/>
<path d="M0 0 C2.45103548 0.98041419 3.76758786 1.6513818 5.25 3.875 C6 6 6 6 6 10 C5.0925 9.649375 4.185 9.29875 3.25 8.9375 C-0.08113738 7.97659499 -0.86625862 8.02070582 -4 9 C-5.99963028 9.03845443 -8.00051633 9.04544281 -10 9 C-9 7 -9 7 -6.3125 5.875 C-3.0420565 5.01110926 -0.36293818 4.83986009 3 5 C2.01 3.35 1.02 1.7 0 0 Z " fill="#7A7A7A" transform="translate(88,107)"/>
<path d="M0 0 C0.33 0 0.66 0 1 0 C1.04946866 4.07507572 1.08575189 8.15003497 1.10986328 12.2253418 C1.1199157 13.61144048 1.1335597 14.99751799 1.15087891 16.38354492 C1.17515952 18.3766975 1.18542031 20.37000533 1.1953125 22.36328125 C1.20578613 23.56251221 1.21625977 24.76174316 1.22705078 25.99731445 C1 29 1 29 -1 32 C-2.33333333 30.66666667 -3.66666667 29.33333333 -5 28 C-4.34 28 -3.68 28 -3 28 C-3 26.68 -3 25.36 -3 24 C-2.34 24 -1.68 24 -1 24 C-0.67 16.08 -0.34 8.16 0 0 Z " fill="#9E9E9E" transform="translate(47,126)"/>
<path d="M0 0 C0.66 0.33 1.32 0.66 2 1 C2 1.66 2 2.32 2 3 C3.32 3.33 4.64 3.66 6 4 C5.175 4.28875 4.35 4.5775 3.5 4.875 C0.79562631 6.72094643 0.79562631 6.72094643 0.5625 9.35546875 C0.50104048 12.01743429 0.46249199 14.38860693 1 17 C1.99 17.66 2.98 18.32 4 19 C2.68 19 1.36 19 0 19 C-1.81027352 13.68232152 -2.74192611 8.62990987 -2 3 C-1.34 2.01 -0.68 1.02 0 0 Z " fill="#9E9E9E" transform="translate(186,46)"/>
<path d="M0 0 C1.3303125 0.4021875 1.3303125 0.4021875 2.6875 0.8125 C2.6875 2.7925 2.6875 4.7725 2.6875 6.8125 C1.6975 6.4825 0.7075 6.1525 -0.3125 5.8125 C-0.3125 4.8225 -0.3125 3.8325 -0.3125 2.8125 C-0.9725 2.8125 -1.6325 2.8125 -2.3125 2.8125 C-2.6425 4.4625 -2.9725 6.1125 -3.3125 7.8125 C-6.3125 6.8125 -6.3125 6.8125 -8.3125 4.8125 C-4.12788462 -0.23365385 -4.12788462 -0.23365385 0 0 Z " fill="#F9F9F9" transform="translate(17.3125,108.1875)"/>
<path d="M0 0 C1.02652975 3.2061854 0.93691063 5.41421013 0.2578125 8.6953125 C0.07863281 9.57574219 -0.10054687 10.45617187 -0.28515625 11.36328125 C-0.47980469 12.27464844 -0.67445313 13.18601562 -0.875 14.125 C-1.06191406 15.04410156 -1.24882812 15.96320313 -1.44140625 16.91015625 C-2.84527726 23.69055451 -2.84527726 23.69055451 -4 26 C-4.66 26 -5.32 26 -6 26 C-6.93065133 23.39417629 -7.14917407 22.35801776 -6.0625 19.75 C-5.711875 19.1725 -5.36125 18.595 -5 18 C-4.67 18.33 -4.34 18.66 -4 19 C-3.69255859 17.19402344 -3.69255859 17.19402344 -3.37890625 15.3515625 C-3.10693641 13.77601308 -2.83479193 12.20049379 -2.5625 10.625 C-2.42779297 9.8309375 -2.29308594 9.036875 -2.15429688 8.21875 C-1.11328125 2.2265625 -1.11328125 2.2265625 0 0 Z " fill="#909090" transform="translate(150,102)"/>
<path d="M0 0 C1.65431248 2.97776246 2.36939011 5.6667763 3 9 C3.33 9.33 3.66 9.66 4 10 C4.23421634 11.45156297 4.41338404 12.91224343 4.5625 14.375 C4.64628906 15.16648438 4.73007812 15.95796875 4.81640625 16.7734375 C5 19 5 19 5 22 C2.47138173 19.36144181 1.78109738 17.35664336 1.4375 13.8125 C1.293125 12.554375 1.14875 11.29625 1 10 C0.34 9.67 -0.32 9.34 -1 9 C-1.94934202 6.07286212 -2.23176473 4.57168632 -1.0625 1.6875 C-0.711875 1.130625 -0.36125 0.57375 0 0 Z " fill="#9C9C9C" transform="translate(51,188)"/>
<path d="M0 0 C3.3 0.33 6.6 0.66 10 1 C9.67 2.98 9.34 4.96 9 7 C5.2241456 6.47557578 2.77627845 5.67345333 0 3 C0 2.01 0 1.02 0 0 Z " fill="#7C7C7C" transform="translate(166,207)"/>
<path d="M0 0 C3.3 0.33 6.6 0.66 10 1 C9.34 2.32 8.68 3.64 8 5 C6.67696283 5.3721042 5.34262065 5.70630173 4 6 C3.01 7.485 3.01 7.485 2 9 C2 7.35 2 5.7 2 4 C1.67 4.33 1.34 4.66 1 5 C0.34 5.66 -0.32 6.32 -1 7 C-0.67 4.69 -0.34 2.38 0 0 Z " fill="#EAEAEA" transform="translate(10,117)"/>
<path d="M0 0 C0.33 0 0.66 0 1 0 C0.96519531 0.81984375 0.93039063 1.6396875 0.89453125 2.484375 C0.86746094 3.56203125 0.84039062 4.6396875 0.8125 5.75 C0.77769531 6.81734375 0.74289063 7.8846875 0.70703125 8.984375 C1.02917214 12.30027855 1.77148914 13.59016673 4 16 C3.01 15.67 2.02 15.34 1 15 C0.34 17.97 -0.32 20.94 -1 24 C-1.33 24 -1.66 24 -2 24 C-2.29599372 15.7943963 -1.43794854 8.07562173 0 0 Z " fill="#9B9B9B" transform="translate(34,82)"/>
<path d="M0 0 C1.32 0 2.64 0 4 0 C4.33 0.66 4.66 1.32 5 2 C5.66 1.67 6.32 1.34 7 1 C7 2.98 7 4.96 7 7 C5.68 7.33 4.36 7.66 3 8 C2.67 6.35 2.34 4.7 2 3 C1.67 4.32 1.34 5.64 1 7 C0.34 7 -0.32 7 -1 7 C-0.67 4.69 -0.34 2.38 0 0 Z " fill="#5C5C5C" transform="translate(212,122)"/>
<path d="M0 0 C0.66 0 1.32 0 2 0 C2.33 0.99 2.66 1.98 3 3 C2.01 3.495 2.01 3.495 1 4 C0.90247539 9.46137814 1.22750855 14.59255982 2 20 C1.34 19.34 0.68 18.68 0 18 C-0.66 18.33 -1.32 18.66 -2 19 C-2.05451714 16.95863605 -2.09302485 14.91684144 -2.125 12.875 C-2.14820313 11.73804687 -2.17140625 10.60109375 -2.1953125 9.4296875 C-1.99672109 5.94242233 -1.2524801 3.2446138 0 0 Z " fill="#919191" transform="translate(66,55)"/>
<path d="M0 0 C0.20625 0.61875 0.4125 1.2375 0.625 1.875 C2.54775888 4.84653645 4.66594527 5.13024659 8 6 C8 6.33 8 6.66 8 7 C6.35 7 4.7 7 3 7 C3 10.3 3 13.6 3 17 C2.67 17 2.34 17 2 17 C1.86722656 16.28972656 1.73445312 15.57945313 1.59765625 14.84765625 C1.42105469 13.92855469 1.24445313 13.00945313 1.0625 12.0625 C0.88847656 11.14597656 0.71445313 10.22945312 0.53515625 9.28515625 C0.22285012 7.04710156 0.22285012 7.04710156 -1 6 C-1.125 3.5 -1.125 3.5 -1 1 C-0.67 0.67 -0.34 0.34 0 0 Z " fill="#868686" transform="translate(169,21)"/>
<path d="M0 0 C0.9075 0.165 1.815 0.33 2.75 0.5 C5.91372977 0.98672766 7.94173339 0.80954116 11 0 C11 0.99 11 1.98 11 3 C9.41132134 4.58867866 7.75310484 4.20794039 5.5625 4.25 C4.75941406 4.27578125 3.95632812 4.3015625 3.12890625 4.328125 C2.42636719 4.21984375 1.72382812 4.1115625 1 4 C0.34 3.01 -0.32 2.02 -1 1 C-0.67 0.67 -0.34 0.34 0 0 Z " fill="#777777" transform="translate(42,20)"/>
<path d="M0 0 C0.33 0 0.66 0 1 0 C1 5.61 1 11.22 1 17 C-0.32 16.34 -1.64 15.68 -3 15 C-3.99 15 -4.98 15 -6 15 C-6 14.34 -6 13.68 -6 13 C-4.35 13 -2.7 13 -1 13 C-1 11.02 -1 9.04 -1 7 C-1.66 7 -2.32 7 -3 7 C-3 6.34 -3 5.68 -3 5 C-2.34 4.67 -1.68 4.34 -1 4 C-0.34786708 1.97536745 -0.34786708 1.97536745 0 0 Z " fill="#888888" transform="translate(176,191)"/>
<path d="M0 0 C0.66 0.33 1.32 0.66 2 1 C2 1.66 2 2.32 2 3 C2.33 3 2.66 3 3 3 C2.67 5.64 2.34 8.28 2 11 C1.34 10.01 0.68 9.02 0 8 C-0.99 8 -1.98 8 -3 8 C-2.45276317 4.62537285 -1.9451 2.91765 0 0 Z " fill="#949494" transform="translate(135,112)"/>
<path d="M0 0 C2.36232333 3.3350447 2.03670794 6.08944279 1.42578125 10.02734375 C0.89403086 12.49095793 0.0685802 14.72036224 -1 17 C-2.25541557 13.23375329 -1.37061958 11.62811066 0 8 C-0.66 7.67 -1.32 7.34 -2 7 C-2 5 -2 3 -2 1 C-1.34 0.67 -0.68 0.34 0 0 Z " fill="#AAAAAA" transform="translate(155,81)"/>
<path d="M0 0 C0.33 0.66 0.66 1.32 1 2 C1.66 2.33 2.32 2.66 3 3 C2.34 3 1.68 3 1 3 C1.66 4.98 2.32 6.96 3 9 C2.01 9 1.02 9 0 9 C0.33 10.98 0.66 12.96 1 15 C-2.00617269 11.99382731 -1.59585316 9.17618402 -2 5 C-1.34 5 -0.68 5 0 5 C0 3.35 0 1.7 0 0 Z " fill="#9A9A9A" transform="translate(199,81)"/>
<path d="M0 0 C0.66 0.33 1.32 0.66 2 1 C1.26523437 1.83724609 1.26523437 1.83724609 0.515625 2.69140625 C-1.25781322 5.39270003 -1.34833136 6.74664751 -1.25 9.9375 C-1.22421875 10.81019531 -1.1984375 11.68289062 -1.171875 12.58203125 C-0.99128671 15.12258014 -0.65689606 17.53663979 0 20 C-2 19 -2 19 -3.25 16.0625 C-4.52088281 11.2768319 -3.52560558 6.63614585 -2 2 C-1.34 1.34 -0.68 0.68 0 0 Z " fill="#888888" transform="translate(41,10)"/>
<path d="M0 0 C0.33 0 0.66 0 1 0 C1.38971999 2.10149011 1.76131477 4.2063482 2.125 6.3125 C2.33382812 7.48425781 2.54265625 8.65601562 2.7578125 9.86328125 C3 13 3 13 1 16 C-0.86665742 12.10281829 -1.13965761 9.45915815 -0.625 5.1875 C-0.51414063 4.21167969 -0.40328125 3.23585938 -0.2890625 2.23046875 C-0.19367187 1.49441406 -0.09828125 0.75835937 0 0 Z " fill="#B4B4B4" transform="translate(48,115)"/>
<path d="M0 0 C0.33 0 0.66 0 1 0 C1.69508823 6.51244208 2.31909709 12.5510809 1 19 C-1 16 -1 16 -1 13 C-1.66 12.67 -2.32 12.34 -3 12 C-2.34 11.34 -1.68 10.68 -1 10 C-0.53837573 7.56747339 -0.53837573 7.56747339 -0.375 4.875 C-0.30023438 3.96492188 -0.22546875 3.05484375 -0.1484375 2.1171875 C-0.09945312 1.41851562 -0.05046875 0.71984375 0 0 Z " fill="#989898" transform="translate(177,104)"/>
<path d="M0 0 C0.33 0 0.66 0 1 0 C1.3125 2.1875 1.3125 2.1875 1 5 C-1.3125 7.8125 -1.3125 7.8125 -4 10 C-4.99 10 -5.98 10 -7 10 C-5.55079575 6.61852341 -3.62738345 4.54262915 -1 2 C-0.67 1.34 -0.34 0.68 0 0 Z " fill="#626262" transform="translate(64,202)"/>
<path d="M0 0 C0.98120464 3.05263664 0.98120464 4.94736336 0 8 C-2 7 -2 7 -5 5 C-5 5.99 -5 6.98 -5 8 C-5.66 7.67 -6.32 7.34 -7 7 C-6.34 5.02 -5.68 3.04 -5 1 C-4.34 1.66 -3.68 2.32 -3 3 C-2.01 2.01 -1.02 1.02 0 0 Z " fill="#666666" transform="translate(19,119)"/>
<path d="M0 0 C0.33 0 0.66 0 1 0 C1.06058594 0.75925781 1.12117188 1.51851563 1.18359375 2.30078125 C1.26738281 3.29464844 1.35117188 4.28851563 1.4375 5.3125 C1.51871094 6.29863281 1.59992188 7.28476563 1.68359375 8.30078125 C1.91812559 11.09375599 1.91812559 11.09375599 3 14 C-0.22791555 16.1519437 -1.28400809 16.20086443 -5 16 C-3.68 15.67 -2.36 15.34 -1 15 C-0.67 10.05 -0.34 5.1 0 0 Z " fill="#868686" transform="translate(76,65)"/>
<path d="M0 0 C0.66 0 1.32 0 2 0 C2.33 1.65 2.66 3.3 3 5 C3.99 5 4.98 5 6 5 C6 5.66 6 6.32 6 7 C5.05125 6.79375 4.1025 6.5875 3.125 6.375 C1.578125 6.189375 1.578125 6.189375 0 6 C-0.66 6.66 -1.32 7.32 -2 8 C-1.125 2.25 -1.125 2.25 0 0 Z " fill="#A8A8A8" transform="translate(20,76)"/>
<path d="M0 0 C0.66 0.33 1.32 0.66 2 1 C1.01 2.485 1.01 2.485 0 4 C0.66 4.66 1.32 5.32 2 6 C0.68 6 -0.64 6 -2 6 C-2 5.01 -2 4.02 -2 3 C-2.928125 3.515625 -3.85625 4.03125 -4.8125 4.5625 C-8 6 -8 6 -11 5 C-9.21289414 4.13633178 -7.4201535 3.28431406 -5.625 2.4375 C-4.62726562 1.96183594 -3.62953125 1.48617187 -2.6015625 0.99609375 C-1.74304687 0.66738281 -0.88453125 0.33867188 0 0 Z " fill="#919191" transform="translate(39,39)"/>
<path d="M0 0 C1.32 0.66 2.64 1.32 4 2 C3.236875 2.45375 2.47375 2.9075 1.6875 3.375 C-0.23632814 4.53824492 -2.12941224 5.7529415 -4 7 C-3.43628586 3.73045798 -2.50037734 2.17424117 0 0 Z M-5 7 C-4.34 7.33 -3.68 7.66 -3 8 C-3 8.66 -3 9.32 -3 10 C-3.99 10.33 -4.98 10.66 -6 11 C-5.67 9.68 -5.34 8.36 -5 7 Z " fill="#C5C5C5" transform="translate(13,106)"/>
<path d="M0 0 C2.125 0.9375 2.125 0.9375 4 2 C4 2.99 4 3.98 4 5 C3.34 5 2.68 5 2 5 C1.67 5.66 1.34 6.32 1 7 C0.34 6.67 -0.32 6.34 -1 6 C-1.625 3.4375 -1.625 3.4375 -2 1 C-1.34 0.67 -0.68 0.34 0 0 Z " fill="#888888" transform="translate(89,120)"/>
<path d="M0 0 C1.32 0.33 2.64 0.66 4 1 C5.125 5.75 5.125 5.75 4 8 C3.01 7.67 2.02 7.34 1 7 C0.67 4.69 0.34 2.38 0 0 Z " fill="#6A6A6A" transform="translate(79,117)"/>
<path d="M0 0 C0.66 0 1.32 0 2 0 C2.12375 0.804375 2.2475 1.60875 2.375 2.4375 C2.684375 3.7059375 2.684375 3.7059375 3 5 C3.66 5.33 4.32 5.66 5 6 C3.35 6.33 1.7 6.66 0 7 C-0.66 5.68 -1.32 4.36 -2 3 C-1.34 2.01 -0.68 1.02 0 0 Z " fill="#B1B1B1" transform="translate(15,111)"/>
<path d="M0 0 C1.32 0 2.64 0 4 0 C4.66 1.98 5.32 3.96 6 6 C4.35 5.67 2.7 5.34 1 5 C0.67 3.35 0.34 1.7 0 0 Z " fill="#FCFCFC" transform="translate(178,191)"/>
<path d="M0 0 C1.5 1.3125 1.5 1.3125 3 3 C3 3.99 3 4.98 3 6 C2.01 6 1.02 6 0 6 C-0.66 6.66 -1.32 7.32 -2 8 C-2.33 6.02 -2.66 4.04 -3 2 C-2.34 2 -1.68 2 -1 2 C-0.67 1.34 -0.34 0.68 0 0 Z " fill="#959595" transform="translate(219,113)"/>
<path d="M0 0 C0 0.66 0 1.32 0 2 C0.66 2.33 1.32 2.66 2 3 C1.67 4.65 1.34 6.3 1 8 C0.34 7.34 -0.32 6.68 -1 6 C-1 5.01 -1 4.02 -1 3 C-1.99 3.33 -2.98 3.66 -4 4 C-4.66 3.67 -5.32 3.34 -6 3 C-6 2.34 -6 1.68 -6 1 C-3.92446352 0.4465236 -2.15634036 0 0 0 Z " fill="#E3E3E3" transform="translate(84,115)"/>
<path d="M0 0 C2.45103548 0.98041419 3.76758786 1.6513818 5.25 3.875 C6 6 6 6 6 10 C5.01 9.67 4.02 9.34 3 9 C1.875 5.5625 1.875 5.5625 1 2 C0.67 1.34 0.34 0.68 0 0 Z " fill="#9C9C9C" transform="translate(88,107)"/>
<path d="M0 0 C0.66 0.33 1.32 0.66 2 1 C1.67 2.65 1.34 4.3 1 6 C0.01 6 -0.98 6 -2 6 C-2.33 6.66 -2.66 7.32 -3 8 C-3 5.69 -3 3.38 -3 1 C-2.01 1.495 -2.01 1.495 -1 2 C-0.67 1.34 -0.34 0.68 0 0 Z " fill="#8C8C8C" transform="translate(11,120)"/>
<path d="M0 0 C0.99 0.33 1.98 0.66 3 1 C2.67 2.98 2.34 4.96 2 7 C1.566875 6.505 1.13375 6.01 0.6875 5.5 C-0.99740483 3.66781808 -0.99740483 3.66781808 -4 4 C-2.68 2.68 -1.36 1.36 0 0 Z " fill="#ABABAB" transform="translate(176,76)"/>
<path d="M0 0 C0.66 0.66 1.32 1.32 2 2 C1.01 2.99 0.02 3.98 -1 5 C-2.32 4.34 -3.64 3.68 -5 3 C-5 2.34 -5 1.68 -5 1 C-2.625 0.375 -2.625 0.375 0 0 Z " fill="#565656" transform="translate(186,208)"/>
<path d="M0 0 C0.66 0.33 1.32 0.66 2 1 C0.71937515 2.7074998 -0.61767557 4.37373596 -2 6 C-2.66 6 -3.32 6 -4 6 C-4.33 4.68 -4.66 3.36 -5 2 C-2.625 0.9375 -2.625 0.9375 0 0 Z " fill="#AEAEAE" transform="translate(62,203)"/>
<path d="M0 0 C-1.875 3.875 -1.875 3.875 -3 5 C-3.66 5 -4.32 5 -5 5 C-5 4.01 -5 3.02 -5 2 C-5.66 1.67 -6.32 1.34 -7 1 C-3.375 -1.125 -3.375 -1.125 0 0 Z " fill="#F4F4F4" transform="translate(91,115)"/>
</svg>
